<?xml version="1.0" encoding="UTF-8"?>
<svg id="a" data-name="Layer 1" xmlns="http://www.w3.org/2000/svg" viewBox="0 0 1214 230">
  <g>
    <path d="M124.9,221.6c-.2-.2,1.5-2.2,1.8-2.5,2.5-3.1,5.4-6.3,8.1-9.3,17.1-19,36.4-36.2,51.5-57.1v-.4c-8.3,8.3-17.5,15.5-26,23.4-10.1,9.5-20.7,20-29.5,30.7-2,2.4-4.1,5.1-5.6,7.8-.5,0-.3-.6-.2-1,1.4-8.8,7-22,10.8-30.2,10.9-23.2,21.2-33.9,43-46.9,10.1-6,21.3-10.9,30-18.9.4,0,.9,3.7,1,4.3,4.8,35.2-15.5,65-45.4,81.4-12.8,7-27,11.2-39.5,18.7Z" style="fill: #accaaf;"/>
    <path d="M96.9,214.5l-4.3-5.9c-9-11-18.9-21.4-29.3-31.1-9.3-8.7-19.2-16.8-28.2-25.8-.5.3.1.6.3.9,17.6,25.2,42.3,45,61.5,69l-12.3-6.4c-22.9-9.2-44.7-19.3-59.3-40.1-12.1-17.1-17.1-37.1-12.7-57.9,15.3,12.3,34.2,19.1,49.2,32,18.7,16,28.8,42.1,35.1,65.3Z" style="fill: #accaaf;"/>
    <path d="M39.9,73c-6,8.1-8.4,18.4-5.7,28.3,6.4,24,38.9,31.9,55.6,13.6.4,4.5.7,8.9,2,13.2,2.4,8.2,8,15.1,11,23.2,7.1,19.1,5.1,41-1.5,60-.4,0-.3-.3-.4-.6-1.6-4.6-2.7-10-4.1-14.7-8.4-27.1-19.1-48.3-44.5-62.9-11-6.3-23.8-9.8-32-20.2-11.8-14.8-9.9-38.5-3.2-55.2,0,0,4.1,5.4,10.6,9.5,4.8,3.1,12.4,5.7,12.4,5.7Z" style="fill: #4f7052;"/>
    <path d="M103.6,91l-5.7-10.4c-11.8-18.6-29.6-33.6-50.5-40.9l-6.6-1.9c15.9,8.8,32.7,19.1,43.1,34.4,2.4,3.5,4.8,7.5,5.5,11.7l-6.1-5.9c-16.4-12.7-40.1-11.5-55.9-25.2C14.8,41.7,10.8,24.7,10.5,8.4c21.5,10.6,45.7,14.9,65.1,29.7,17,12.8,26.2,31.8,28,52.9Z" style="fill: #accaaf;"/>
    <path d="M132,83.9c5.4-16.5,20.5-28.7,34.6-37.8,4.7-3,9.5-5.9,14.6-8.3,0-.6-.6-.2-.9-.2-2.7.6-6.1,1.8-8.7,2.8-23.1,8.7-43.2,28.2-53.7,50.4,1.5-21,10.9-39.7,27.6-52.6,19.3-14.9,43.8-19.4,65.4-30-.3,17.4-5.2,36-20,46.5-18.3,13.1-44.1,10.9-59.1,29Z" style="fill: #accaaf;"/>
    <path d="M61.4,77.8c7.9-.9,13.8,1.4,17.9,8.2,10,16.5-10.5,34-25.5,22.2-11.2-8.8-6.7-28.7,7.6-30.4Z" style="fill: #4f7052;"/>
    <path d="M155.8,77.8c20.1-1.8,25.3,27.6,6.5,33.3-24.8,7.5-32.3-31.1-6.5-33.3Z" style="fill: #4f7052;"/>
    <path d="M110.7,100.4c.4-.1.5,0,.8.2.8.6,3.3,3.3,4.1,4.1,7.9,9.1,9.1,18.3,3.4,29.1-.8,1.6-7.1,10.9-8.4,10.7-9.2-9.8-16.1-22.6-8.1-35.5,1-1.7,6.5-8.3,8.1-8.7Z" style="fill: #accaaf;"/>
    <path d="M181.8,73c6,8.1,8.4,18.4,5.7,28.3-6.4,24-38.9,31.9-55.6,13.6-.4,4.5-.7,8.9-2,13.2-2.4,8.2-8,15.1-11,23.2-7.1,19.1-5.1,41,1.5,60,.4,0,.3-.3.4-.6,1.6-4.6,2.7-10,4.1-14.7,8.4-27.1,19.1-48.3,44.5-62.9,11-6.3,23.8-9.8,32-20.2,11.8-14.8,9.9-38.5,3.2-55.2,0,0-4.1,5.4-10.6,9.5-4.8,3.1-12.4,5.7-12.4,5.7Z" style="fill: #4f7052;"/>
  </g>
  <g>
    <path d="M313.2,166.1c-4.9,0-9.6-.6-14-1.8-4.4-1.2-8.4-2.9-12-5.1-3.6-2.2-6.8-4.8-9.5-7.9l10.7-9.9c3.2,3.6,6.9,6.3,11,8.1,4.2,1.8,8.8,2.6,14,2.6s9.1-.8,12-2.5c2.8-1.6,4.2-3.9,4.2-6.9s-1.1-5.2-3.4-6.9c-2.3-1.6-5.2-3-8.7-4.1-3.6-1.1-7.3-2.1-11.3-3.1-4-1-7.8-2.4-11.3-4.1-3.6-1.7-6.5-4.1-8.7-7.1-2.3-3-3.4-6.9-3.4-11.8s1.3-9.1,3.8-12.7c2.5-3.6,6.1-6.3,10.8-8.2,4.7-1.9,10.2-2.9,16.7-2.9s13,1.1,18.3,3.3c5.3,2.2,9.7,5.5,13.2,9.9l-10.7,9.9c-2.6-2.9-5.6-5.2-9.2-6.8-3.6-1.6-7.6-2.4-12.1-2.4s-8.4.8-10.9,2.4c-2.5,1.6-3.8,3.7-3.8,6.3s1.1,4.8,3.3,6.3c2.2,1.5,5.1,2.7,8.7,3.7,3.6,1,7.4,2.1,11.3,3.1,3.9,1.1,7.7,2.5,11.2,4.3,3.6,1.8,6.5,4.2,8.7,7.3,2.3,3.1,3.4,7.1,3.4,12.1,0,7.6-2.9,13.6-8.7,18-5.8,4.4-13.6,6.6-23.5,6.6Z"/>
    <path d="M430.2,83.6v11c-3-3.7-6.8-6.6-11.3-8.9-5.2-2.5-11.1-3.8-17.8-3.8s-15.4,1.9-21.8,5.6c-6.4,3.7-11.5,8.8-15.3,15.1-3.7,6.3-5.6,13.5-5.6,21.4s1.9,15.1,5.6,21.4c3.7,6.3,8.8,11.4,15.3,15,6.4,3.7,13.7,5.5,21.8,5.5s12.6-1.3,17.8-3.8c4.5-2.2,8.3-5.1,11.2-8.8v10.9h16.7v-80.8h-16.7ZM423.8,143.9c-5,5.2-11.7,7.7-19.9,7.7s-10.4-1.2-14.7-3.6c-4.3-2.4-7.6-5.6-10-9.8-2.4-4.1-3.6-8.9-3.6-14.4s1.2-10.1,3.6-14.2c2.4-4.1,5.7-7.4,9.9-9.8s9.1-3.6,14.6-3.6,10.3,1.2,14.4,3.5c4.1,2.3,7.3,5.6,9.7,9.8,2.3,4.2,3.5,9,3.5,14.5,0,8-2.5,14.6-7.5,19.8Z"/>
    <path d="M652.7,101.1c-3.5-6-8.4-10.7-14.6-14.1-6.3-3.4-13.4-5.1-21.3-5.1s-16.1,1.8-22.9,5.5c-6.8,3.7-12.2,8.7-16.2,15-4,6.3-6,13.5-6,21.4s2,15.2,6.1,21.6c4,6.3,9.5,11.4,16.5,15,6.9,3.7,14.8,5.5,23.6,5.5s13.3-1.2,19.3-3.6c6-2.4,11.2-5.8,15.5-10.4l-10.7-10c-2.9,3.2-6.5,5.6-10.6,7.1-4.1,1.6-8.6,2.4-13.5,2.4s-11.1-1.2-15.6-3.5c-4.5-2.3-8-5.6-10.5-9.9-1.5-2.6-2.5-5.5-3.1-8.6h68.4c.4-1.6.6-3,.7-4.3.1-1.3.2-2.5.2-3.7,0-7.7-1.7-14.6-5.2-20.6ZM601.5,99.4c4.3-2.3,9.3-3.4,14.9-3.4s10,1,13.8,3.1c3.8,2.1,6.7,5,8.8,8.8,1.4,2.6,2.3,5.6,2.8,8.9h-53.2c.6-2.9,1.5-5.6,2.9-8,2.3-4.1,5.6-7.3,9.9-9.5Z"/>
    <path d="M690.5,166.1c-3.6,0-6.4-1.1-8.6-3.3-2.2-2.2-3.3-4.8-3.3-7.9s1.1-5.8,3.3-7.9c2.2-2.1,5.1-3.1,8.6-3.1s6.3,1,8.6,3.1c2.3,2.1,3.4,4.7,3.4,7.9s-1.1,5.7-3.4,7.9c-2.3,2.2-5.1,3.3-8.6,3.3Z"/>
    <path d="M765.7,166.1c-8.6,0-16.3-1.9-23.3-5.6-6.9-3.7-12.4-8.8-16.4-15.2-4-6.4-6-13.5-6-21.3s2-15.1,6-21.4c4-6.3,9.4-11.4,16.4-15,6.9-3.7,14.7-5.5,23.3-5.5s13,1.2,18.8,3.5c5.8,2.3,10.7,5.7,14.9,10.1l-11,10.2c-2.7-2.9-6-5.2-9.9-6.7-3.9-1.5-8.2-2.3-12.7-2.3s-10.4,1.2-14.7,3.5c-4.3,2.3-7.7,5.5-10.1,9.6s-3.7,8.8-3.7,14.1,1.2,10,3.7,14.1,5.8,7.3,10.1,9.7c4.3,2.4,9.2,3.6,14.7,3.6s8.9-.8,12.8-2.3c3.9-1.5,7.2-3.8,10-6.7l10.9,10.2c-4,4.3-9,7.7-14.8,10-5.8,2.4-12.1,3.6-18.9,3.6Z"/>
    <path d="M853.7,166.1c-8.5,0-16.1-1.9-23-5.6-6.9-3.7-12.3-8.8-16.4-15.2-4-6.4-6.1-13.6-6.1-21.5s2-14.9,6.1-21.2,9.5-11.3,16.4-15c6.9-3.7,14.5-5.6,23-5.6s16.3,1.8,23.3,5.5c6.9,3.7,12.4,8.7,16.5,15,4,6.3,6.1,13.4,6.1,21.2s-2,15.1-6.1,21.5c-4,6.4-9.5,11.5-16.5,15.2-6.9,3.7-14.7,5.6-23.3,5.6ZM853.7,151.3c5.6,0,10.6-1.2,14.9-3.6s7.7-5.6,10.1-9.8c2.5-4.1,3.7-8.9,3.7-14.2s-1.3-9.9-3.8-13.9-5.9-7.3-10.1-9.6c-4.2-2.3-9.2-3.5-14.8-3.5s-10.2,1.2-14.5,3.5c-4.3,2.3-7.7,5.5-10.1,9.6s-3.7,8.7-3.7,13.9,1.2,10.1,3.7,14.2c2.5,4.1,5.8,7.4,10.1,9.8,4.3,2.4,9.1,3.6,14.5,3.6Z"/>
    <g>
      <path d="M981.7,109.6c-2.3-4.2-5.6-7.5-9.7-9.8-4.1-2.3-8.9-3.5-14.4-3.5s-10.4,1.2-14.6,3.6-7.5,5.6-9.9,9.8c-2.4,4.1-3.6,8.9-3.6,14.2s1.2,10.2,3.6,14.4c2.4,4.1,5.7,7.4,10,9.8,4.3,2.4,9.2,3.6,14.7,3.6,8.2,0,14.8-2.6,19.9-7.7,5-5.2,7.5-11.8,7.5-19.8s-1.2-10.3-3.5-14.5Z" style="fill: none;"/>
      <path d="M984.1,83.6v11c-3-3.7-6.8-6.6-11.3-8.9-5.2-2.5-11.1-3.8-17.8-3.8s-15.4,1.9-21.8,5.6c-6.4,3.7-11.5,8.8-15.3,15.1-3.7,6.3-5.6,13.5-5.6,21.4s1.9,15.1,5.6,21.4c3.7,6.3,8.8,11.4,15.3,15,6.4,3.7,13.7,5.5,21.8,5.5s12.6-1.3,17.8-3.8c4.5-2.2,8.3-5.1,11.2-8.8v10.9h16.7v-80.8h-16.7ZM977.7,143.9c-5,5.2-11.7,7.7-19.9,7.7s-10.4-1.2-14.7-3.6c-4.3-2.4-7.6-5.6-10-9.8-2.4-4.1-3.6-8.9-3.6-14.4s1.2-10.1,3.6-14.2c2.4-4.1,5.7-7.4,9.9-9.8s9.1-3.6,14.6-3.6,10.3,1.2,14.4,3.5c4.1,2.3,7.3,5.6,9.7,9.8,2.3,4.2,3.5,9,3.5,14.5,0,8-2.5,14.6-7.5,19.8Z"/>
    </g>
    <path d="M1064.8,166.1c-8.6,0-16.3-1.9-23.3-5.6-6.9-3.7-12.4-8.8-16.4-15.2-4-6.4-6-13.5-6-21.3s2-15.1,6-21.4c4-6.3,9.4-11.4,16.4-15,6.9-3.7,14.7-5.5,23.3-5.5s13,1.2,18.8,3.5c5.8,2.3,10.7,5.7,14.9,10.1l-11,10.2c-2.7-2.9-6-5.2-9.9-6.7-3.9-1.5-8.2-2.3-12.7-2.3s-10.4,1.2-14.7,3.5c-4.3,2.3-7.7,5.5-10.1,9.6s-3.7,8.8-3.7,14.1,1.2,10,3.7,14.1,5.8,7.3,10.1,9.7c4.3,2.4,9.2,3.6,14.7,3.6s8.9-.8,12.8-2.3c3.9-1.5,7.2-3.8,10-6.7l10.9,10.2c-4,4.3-9,7.7-14.8,10-5.8,2.4-12.1,3.6-18.9,3.6Z"/>
    <path d="M1188.8,97.4c-2.9-4.9-7-8.7-12-11.4-5.1-2.7-10.9-4.1-17.6-4.1s-12.6,1.4-17.8,4.2c-4,2.1-7.3,4.7-9.9,8v-51.1h-16.6v121.4h16.6v-47.1c0-4.1,1-7.7,2.9-10.9,2-3.2,4.7-5.7,8.1-7.5,3.4-1.8,7.4-2.7,11.8-2.7,6.6,0,12,2,16.1,6,4.1,4,6.2,9,6.2,15.1v47.1h16.7v-50.2c0-6.3-1.5-12-4.4-16.8Z"/>
    <path d="M536.7,83.6v10.8c-2.9-3.7-6.7-6.6-11.3-8.7-5.3-2.5-11.4-3.7-18.3-3.7s-15,1.8-21.3,5.4c-6.4,3.6-11.4,8.4-15,14.5-3.6,6.1-5.4,12.9-5.4,20.7s1.8,14.6,5.5,20.8c3.7,6.2,8.7,11,15,14.5,6.3,3.5,13.5,5.3,21.4,5.3s12.8-1.2,18-3.7c4.6-2.2,8.4-5.1,11.4-8.9v10.7c0,7.4-2.6,13.2-7.9,17.6-5.3,4.4-12.3,6.5-21.2,6.5s-12.6-1.1-17.5-3.3c-4.9-2.2-9.1-5.4-12.7-9.6l-10.9,10c4.3,5.6,9.9,9.9,16.7,12.9,6.9,3.1,14.8,4.6,23.9,4.6s17.1-1.6,24-4.8c6.9-3.2,12.3-7.8,16.2-13.6,3.9-5.8,5.8-12.6,5.8-20.3v-77.5h-16.6ZM534.2,136.3c-2.3,3.9-5.4,6.9-9.5,9.1-4,2.2-8.8,3.2-14.3,3.2s-10.2-1.1-14.4-3.3-7.5-5.3-9.9-9.3c-2.4-4-3.6-8.5-3.6-13.6s1.2-9.6,3.6-13.5c2.4-3.9,5.7-7,9.8-9.2,4.2-2.2,9-3.3,14.5-3.3s10.1,1.1,14.3,3.3c4.1,2.2,7.3,5.3,9.6,9.2,2.3,3.9,3.4,8.5,3.4,13.7s-1.1,9.8-3.4,13.7Z"/>
  </g>
</svg>